<?xml version="1.0" standalone="no"?><!DOCTYPE svg PUBLIC "-//W3C//DTD SVG 1.1//EN" "http://www.w3.org/Graphics/SVG/1.1/DTD/svg11.dtd"><svg t="1644650924859" class="icon" viewBox="0 0 1027 1024" version="1.1" xmlns="http://www.w3.org/2000/svg" p-id="2232" xmlns:xlink="http://www.w3.org/1999/xlink" width="200.5859375" height="200"><defs><style type="text/css"></style></defs><path d="M513.495618 1024C231.521714 1024 2.991237 795.469523 2.991237 513.495618S231.521714 2.991237 513.495618 2.991237s510.504382 228.530477 510.504382 510.504381-228.530477 510.504382-510.504382 510.504382z" fill="#11AAED" p-id="2233"></path><path d="M668.042843 490.363389c49.455112-25.724635 83.256086-77.37332 83.256086-136.898929 0-85.050828-69.197274-154.248101-154.248101-154.248102-21.536904 0-42.375852 4.387147-61.918598 12.962026-20.440117-8.574878-42.774684-13.261149-66.305745-13.261149-94.822201 0-171.896397 77.173905-171.896397 171.896397 0 67.203116 38.786368 125.53223 95.121324 153.749562-126.130477 33.900682-219.157936 149.162999-219.157936 285.862512 0 9.771373 7.976631 17.748004 17.748004 17.748004s17.748004-7.976631 17.748004-17.748004c0-143.679065 116.857644-260.536709 260.536709-260.536709s260.536709 116.857644 260.536709 260.536709c0 9.771373 7.976631 17.748004 17.748004 17.748004s17.748004-7.976631 17.748003-17.748004c0-136.699513-93.127167-251.961831-219.157935-285.862512 5.583642-2.791821 10.967868-5.882765 16.152677-9.173126 1.096787 0.099708 2.193574 0.099708 3.290361 0 8.176047-0.897371 16.551509-1.296203 24.827264-1.296202 126.130477 0 228.630185 102.599416 228.630185 228.630185 0 9.771373 7.976631 17.748004 17.748003 17.748004s17.748004-7.976631 17.748004-17.748004C854.09776 624.171373 775.727361 523.665823 668.042843 490.363389z m-70.992015-255.750731c65.508082 0 118.851801 53.34372 118.851801 118.851802 0 61.81889-47.460954 112.76962-107.883934 118.253554 20.639533-28.416748 32.903603-63.2148 32.903603-100.904382 0-54.340798-25.325803-102.798832-64.810127-134.306524 6.879844-1.196495 13.859396-1.89445 20.938657-1.89445zM332.426095 370.813632c0-75.279455 61.220643-136.500097 136.500098-136.500097s136.500097 61.220643 136.500097 136.500097-61.220643 136.500097-136.500097 136.500097-136.500097-61.220643-136.500098-136.500097z" fill="#FFFFFF" p-id="2234"></path></svg>